<?xml version="1.0" standalone="no"?>
<!DOCTYPE svg PUBLIC "-//W3C//DTD SVG 20010904//EN"
 "http://www.w3.org/TR/2001/REC-SVG-20010904/DTD/svg10.dtd">
<svg version="1.0" xmlns="http://www.w3.org/2000/svg"
 width="400.000000pt" height="400.000000pt" viewBox="0 0 400.000000 400.000000"
 preserveAspectRatio="xMidYMid meet">

<g transform="translate(0.000000,400.000000) scale(0.100000,-0.100000)"
fill="#000000" stroke="none">
<path d="M0 2000 l0 -2000 2000 0 2000 0 0 2000 0 2000 -2000 0 -2000 0 0
-2000z m2843 993 c-45 -70 -667 -999 -674 -1007 -4 -4 -77 96 -162 224 l-155
231 -333 -496 -334 -497 -25 33 c-14 17 -91 131 -172 253 -137 203 -148 224
-148 266 0 36 8 57 43 110 311 472 594 883 616 895 22 12 134 14 694 15 l667
0 -17 -27z m151 -698 c154 -231 166 -252 166 -295 0 -52 33 1 -360 -583 -186
-277 -283 -413 -302 -423 -23 -12 -133 -14 -698 -12 l-670 3 357 533 c197 292
361 532 365 532 4 0 76 -102 159 -226 83 -125 154 -222 158 -218 5 5 147 216
316 469 342 512 325 489 335 478 4 -4 82 -120 174 -258z"/>
</g>
</svg>
